<svg xmlns="http://www.w3.org/2000/svg" viewBox="0 0 100 125">
  <path fill="#fff" d="M23.6 64.75h7.7l19.78 16.91a3.1 3.1 0 0 0 2 .75 3.14 3.14 0 0 0 1.32-.29 3.09 3.09 0 0 0 1.81-2.83V20.71a3.12 3.12 0 0 0-5.15-2.37L31.3 35.25h-7.7a6.51 6.51 0 0 0-6.5 6.5v16.5a6.51 6.51 0 0 0 6.5 6.5Zm-3.5-23a3.5 3.5 0 0 1 3.5-3.5h8.25a1.5 1.5 0 0 0 1-.36L53 20.62a.11.11 0 0 1 .13 0 .1.1 0 0 1 .07.11v58.56a.12.12 0 0 1-.2.09L32.83 62.11a1.5 1.5 0 0 0-1-.36H23.6a3.5 3.5 0 0 1-3.5-3.5ZM82.9 50a30.82 30.82 0 0 1-14.25 26A1.5 1.5 0 1 1 67 73.52a27.92 27.92 0 0 0 0-47A1.5 1.5 0 1 1 68.65 24 30.82 30.82 0 0 1 82.9 50Zm-15 0a15.8 15.8 0 0 0-6.26-12.63A1.5 1.5 0 1 1 63.45 35a18.87 18.87 0 0 1 0 30 1.5 1.5 0 1 1-1.82-2.38A15.8 15.8 0 0 0 67.89 50Z"/>
</svg>
