<svg xmlns="http://www.w3.org/2000/svg" viewBox="0 0 94.25 100.25">
  <path d="m74.121 50 8.939-8.939a1.5 1.5 0 1 0-2.121-2.121L72 47.879l-8.939-8.939a1.5 1.5 0 1 0-2.121 2.121L69.879 50l-8.939 8.939a1.5 1.5 0 1 0 2.122 2.121l8.939-8.939 8.939 8.939c.293.293.677.439 1.061.439s.768-.146 1.061-.439a1.5 1.5 0 0 0 0-2.121L74.121 50zM51.191 11.659a1.5 1.5 0 0 0-1.571.141L23.202 31.593H8.22a1.5 1.5 0 0 0-1.5 1.5V67.06a1.5 1.5 0 0 0 1.5 1.5h14.985l26.419 19.644A1.501 1.501 0 0 0 52.019 87V13a1.498 1.498 0 0 0-.828-1.341zM49.02 84.016l-24.423-18.16a1.504 1.504 0 0 0-.895-.296H9.72V34.593h13.982a1.5 1.5 0 0 0 .899-.299l24.418-18.295.001 68.017z"/>
</svg>
